<svg xmlns="http://www.w3.org/2000/svg" width="96" height="96" viewBox="0 0 96 96" fill="none" stroke="#FFFFFF" stroke-width="4" stroke-linecap="round" stroke-linejoin="round"><path d="M23.2 45.2L8 88l42.8-15.2"/><path d="M16 12h.04"/><path d="M88 32h.04"/><path d="M60 8h.04"/><path d="M88 80h.04"/><path d="M88 8l-8.96 3a11.6 11.6 0 0 0-7.84 12.48l.8 6.52a9.6 9.6 0 0 1-9.44 10.96h-4.56a8.48 8.48 0 0 0-8.48 8.48c0 2.96 1.6 5.68 4.2 7.12l2.28 1.24"/><path d="M29.6 66.4l4.96-4.96a6.32 6.32 0 0 1 8.96 0l1.4 1.4a6.32 6.32 0 0 0 8.96 0l1.4-1.4a6.32 6.32 0 0 1 8.96 0l2.76 2.76"/></svg>